<?xml version="1.0" encoding="UTF-8" standalone="no"?>
<!DOCTYPE svg PUBLIC "-//W3C//DTD SVG 1.1//EN"
 "http://www.w3.org/Graphics/SVG/1.1/DTD/svg11.dtd">
<!-- Generated by graphviz version 2.40.1 (20161225.0304)
 -->
<!-- Title: compactRelationshipsDiagram Pages: 1 -->
<svg width="1188pt" height="561pt"
 viewBox="0.00 0.00 1188.00 561.20" xmlns="http://www.w3.org/2000/svg" xmlns:xlink="http://www.w3.org/1999/xlink">
<g id="graph0" class="graph" transform="scale(1 1) rotate(0) translate(4 557.2)">
<title>compactRelationshipsDiagram</title>
<polygon fill="#ffffff" stroke="transparent" points="-4,4 -4,-557.2 1184,-557.2 1184,4 -4,4"/>
<text text-anchor="middle" x="72.4936" y="-7.3" font-family="Helvetica,sans-Serif" font-size="11.00" fill="#000000">Generated by SchemaSpy</text>
<!-- CodeTable -->
<g id="node1" class="node">
<title>CodeTable</title>
<g id="a_node1"><a xlink:href="../../tables/CodeTable.html" xlink:title="CodeTable" target="_top">
<polygon fill="#ffffff" stroke="transparent" points="485.5,-345.2 485.5,-450.2 676.5,-450.2 676.5,-345.2 485.5,-345.2"/>
<polygon fill="#f5f5f5" stroke="transparent" points="486,-426.7 486,-449.7 677,-449.7 677,-426.7 486,-426.7"/>
<polygon fill="none" stroke="#000000" points="486,-426.7 486,-449.7 677,-449.7 677,-426.7 486,-426.7"/>
<text text-anchor="start" x="491" y="-435.8" font-family="Helvetica,sans-Serif" font-weight="bold" font-size="11.00" fill="#000000">CodeTable</text>
<text text-anchor="start" x="642.0437" y="-434.8" font-family="Helvetica,sans-Serif" font-size="11.00" fill="#000000">[table]</text>
<polygon fill="none" stroke="#000000" points="486,-404.7 486,-426.7 677,-426.7 677,-404.7 486,-404.7"/>
<image xlink:href="../../images/primaryKeys.png" width="11px" height="12px" preserveAspectRatio="xMinYMin meet" x="491" y="-421.7"/>
<text text-anchor="start" x="506" y="-411.8" font-family="Helvetica,sans-Serif" font-size="11.00" fill="#000000">cldf_id</text>
<polygon fill="none" stroke="#000000" points="486,-382.7 486,-404.7 677,-404.7 677,-382.7 486,-382.7"/>
<image xlink:href="../../images/foreignKeys.png" width="11px" height="12px" preserveAspectRatio="xMinYMin meet" x="491" y="-399.7"/>
<text text-anchor="start" x="506" y="-389.8" font-family="Helvetica,sans-Serif" font-size="11.00" fill="#000000">cldf_parameterReference</text>
<polygon fill="none" stroke="#000000" points="486,-363.7 486,-382.7 677,-382.7 677,-363.7 486,-363.7"/>
<text text-anchor="start" x="489" y="-369.8" font-family="Helvetica,sans-Serif" font-size="11.00" fill="#000000">...</text>
<polygon fill="#ffffff" stroke="transparent" points="486,-344.7 486,-363.7 549,-363.7 549,-344.7 486,-344.7"/>
<polygon fill="none" stroke="#000000" points="486,-344.7 486,-363.7 549,-363.7 549,-344.7 486,-344.7"/>
<text text-anchor="start" x="489" y="-350.8" font-family="Helvetica,sans-Serif" font-size="11.00" fill="#000000">&lt; 1</text>
<polygon fill="#ffffff" stroke="transparent" points="549,-344.7 549,-363.7 635,-363.7 635,-344.7 549,-344.7"/>
<polygon fill="none" stroke="#000000" points="549,-344.7 549,-363.7 635,-363.7 635,-344.7 549,-344.7"/>
<text text-anchor="start" x="572.094" y="-350.8" font-family="Helvetica,sans-Serif" font-size="11.00" fill="#000000">14,214 rows</text>
<polygon fill="#ffffff" stroke="transparent" points="635,-344.7 635,-363.7 677,-363.7 677,-344.7 635,-344.7"/>
<polygon fill="none" stroke="#000000" points="635,-344.7 635,-363.7 677,-363.7 677,-344.7 635,-344.7"/>
<text text-anchor="start" x="658.4053" y="-350.8" font-family="Helvetica,sans-Serif" font-size="11.00" fill="#000000">1 &gt;</text>
</a>
</g>
</g>
<!-- ParameterTable -->
<g id="node6" class="node">
<title>ParameterTable</title>
<g id="a_node6"><a xlink:href="../../tables/ParameterTable.html" xlink:title="ParameterTable" target="_top">
<polygon fill="#ffffff" stroke="transparent" points="206,-318.2 206,-423.2 410,-423.2 410,-318.2 206,-318.2"/>
<polygon fill="#f5f5f5" stroke="transparent" points="206,-399.7 206,-422.7 410,-422.7 410,-399.7 206,-399.7"/>
<polygon fill="none" stroke="#000000" points="206,-399.7 206,-422.7 410,-422.7 410,-399.7 206,-399.7"/>
<text text-anchor="start" x="211" y="-408.8" font-family="Helvetica,sans-Serif" font-weight="bold" font-size="11.00" fill="#000000">ParameterTable</text>
<text text-anchor="start" x="375.0437" y="-407.8" font-family="Helvetica,sans-Serif" font-size="11.00" fill="#000000">[table]</text>
<polygon fill="none" stroke="#000000" points="206,-377.7 206,-399.7 410,-399.7 410,-377.7 206,-377.7"/>
<image xlink:href="../../images/primaryKeys.png" width="11px" height="12px" preserveAspectRatio="xMinYMin meet" x="211" y="-394.7"/>
<text text-anchor="start" x="226" y="-384.8" font-family="Helvetica,sans-Serif" font-size="11.00" fill="#000000">cldf_id</text>
<polygon fill="none" stroke="#000000" points="206,-355.7 206,-377.7 410,-377.7 410,-355.7 206,-355.7"/>
<image xlink:href="../../images/foreignKeys.png" width="11px" height="12px" preserveAspectRatio="xMinYMin meet" x="211" y="-372.7"/>
<text text-anchor="start" x="226" y="-362.8" font-family="Helvetica,sans-Serif" font-size="11.00" fill="#000000">cldf_contributionReference</text>
<polygon fill="none" stroke="#000000" points="206,-336.7 206,-355.7 410,-355.7 410,-336.7 206,-336.7"/>
<text text-anchor="start" x="209" y="-342.8" font-family="Helvetica,sans-Serif" font-size="11.00" fill="#000000">...</text>
<polygon fill="#ffffff" stroke="transparent" points="206,-317.7 206,-336.7 278,-336.7 278,-317.7 206,-317.7"/>
<polygon fill="none" stroke="#000000" points="206,-317.7 206,-336.7 278,-336.7 278,-317.7 206,-317.7"/>
<text text-anchor="start" x="209" y="-323.8" font-family="Helvetica,sans-Serif" font-size="11.00" fill="#000000">&lt; 1</text>
<polygon fill="#ffffff" stroke="transparent" points="278,-317.7 278,-336.7 363,-336.7 363,-317.7 278,-317.7"/>
<polygon fill="none" stroke="#000000" points="278,-317.7 278,-336.7 363,-336.7 363,-317.7 278,-317.7"/>
<text text-anchor="start" x="306.2089" y="-323.8" font-family="Helvetica,sans-Serif" font-size="11.00" fill="#000000">2,369 rows</text>
<polygon fill="#ffffff" stroke="transparent" points="363,-317.7 363,-336.7 410,-336.7 410,-317.7 363,-317.7"/>
<polygon fill="none" stroke="#000000" points="363,-317.7 363,-336.7 410,-336.7 410,-317.7 363,-317.7"/>
<text text-anchor="start" x="391.4053" y="-323.8" font-family="Helvetica,sans-Serif" font-size="11.00" fill="#000000">2 &gt;</text>
</a>
</g>
</g>
<!-- CodeTable&#45;&gt;ParameterTable -->
<g id="edge1" class="edge">
<title>CodeTable:w&#45;&gt;ParameterTable:e</title>
<path fill="none" stroke="#000000" d="M471.4921,-393.3563C448.8357,-392.2267 438.4294,-388.7 410,-388.7"/>
<polygon fill="#000000" stroke="#000000" points="478.0022,-393.5105 485.9147,-397.299 482.0011,-393.6052 486,-393.7 486,-393.7 486,-393.7 482.0011,-393.6052 486.0853,-390.101 478.0022,-393.5105 478.0022,-393.5105"/>
<ellipse fill="none" stroke="#000000" cx="474.8031" cy="-393.4347" rx="3.2" ry="3.2"/>
</g>
<!-- ContributionTable -->
<g id="node2" class="node">
<title>ContributionTable</title>
<g id="a_node2"><a xlink:href="../../tables/ContributionTable.html" xlink:title="ContributionTable" target="_top">
<polygon fill="#ffffff" stroke="transparent" points="8,-293.2 8,-376.2 151,-376.2 151,-293.2 8,-293.2"/>
<polygon fill="#f5f5f5" stroke="transparent" points="8.5,-352.7 8.5,-375.7 151.5,-375.7 151.5,-352.7 8.5,-352.7"/>
<polygon fill="none" stroke="#000000" points="8.5,-352.7 8.5,-375.7 151.5,-375.7 151.5,-352.7 8.5,-352.7"/>
<text text-anchor="start" x="13.5" y="-361.8" font-family="Helvetica,sans-Serif" font-weight="bold" font-size="11.00" fill="#000000">ContributionTable</text>
<text text-anchor="start" x="116.5437" y="-360.8" font-family="Helvetica,sans-Serif" font-size="11.00" fill="#000000">[table]</text>
<polygon fill="none" stroke="#000000" points="8.5,-330.7 8.5,-352.7 151.5,-352.7 151.5,-330.7 8.5,-330.7"/>
<image xlink:href="../../images/primaryKeys.png" width="11px" height="12px" preserveAspectRatio="xMinYMin meet" x="13.5" y="-347.7"/>
<text text-anchor="start" x="28.5" y="-337.8" font-family="Helvetica,sans-Serif" font-size="11.00" fill="#000000">cldf_id</text>
<polygon fill="none" stroke="#000000" points="8.5,-311.7 8.5,-330.7 151.5,-330.7 151.5,-311.7 8.5,-311.7"/>
<text text-anchor="start" x="11.5" y="-317.8" font-family="Helvetica,sans-Serif" font-size="11.00" fill="#000000">...</text>
<polygon fill="#ffffff" stroke="transparent" points="8.5,-292.7 8.5,-311.7 50.5,-311.7 50.5,-292.7 8.5,-292.7"/>
<polygon fill="none" stroke="#000000" points="8.5,-292.7 8.5,-311.7 50.5,-311.7 50.5,-292.7 8.5,-292.7"/>
<text text-anchor="start" x="11.5" y="-298.8" font-family="Helvetica,sans-Serif" font-size="11.00" fill="#000000"> &#160;</text>
<polygon fill="#ffffff" stroke="transparent" points="50.5,-292.7 50.5,-311.7 115.5,-311.7 115.5,-292.7 50.5,-292.7"/>
<polygon fill="none" stroke="#000000" points="50.5,-292.7 50.5,-311.7 115.5,-311.7 115.5,-292.7 50.5,-292.7"/>
<text text-anchor="start" x="67.8807" y="-298.8" font-family="Helvetica,sans-Serif" font-size="11.00" fill="#000000">121 rows</text>
<polygon fill="#ffffff" stroke="transparent" points="115.5,-292.7 115.5,-311.7 151.5,-311.7 151.5,-292.7 115.5,-292.7"/>
<polygon fill="none" stroke="#000000" points="115.5,-292.7 115.5,-311.7 151.5,-311.7 151.5,-292.7 115.5,-292.7"/>
<text text-anchor="start" x="132.9053" y="-298.8" font-family="Helvetica,sans-Serif" font-size="11.00" fill="#000000">4 &gt;</text>
</a>
</g>
</g>
<!-- ContributionTable_SourceTable -->
<g id="node3" class="node">
<title>ContributionTable_SourceTable</title>
<g id="a_node3"><a xlink:href="../../tables/ContributionTable_SourceTable.html" xlink:title="ContributionTable_SourceTable" target="_top">
<polygon fill="#ffffff" stroke="transparent" points="465,-219.2 465,-324.2 697,-324.2 697,-219.2 465,-219.2"/>
<polygon fill="#f5f5f5" stroke="transparent" points="465,-300.7 465,-323.7 697,-323.7 697,-300.7 465,-300.7"/>
<polygon fill="none" stroke="#000000" points="465,-300.7 465,-323.7 697,-323.7 697,-300.7 465,-300.7"/>
<text text-anchor="start" x="470" y="-309.8" font-family="Helvetica,sans-Serif" font-weight="bold" font-size="11.00" fill="#000000">ContributionTable_SourceTable</text>
<text text-anchor="start" x="662.0437" y="-308.8" font-family="Helvetica,sans-Serif" font-size="11.00" fill="#000000">[table]</text>
<polygon fill="none" stroke="#000000" points="465,-278.7 465,-300.7 697,-300.7 697,-278.7 465,-278.7"/>
<image xlink:href="../../images/foreignKeys.png" width="11px" height="12px" preserveAspectRatio="xMinYMin meet" x="470" y="-295.7"/>
<text text-anchor="start" x="485" y="-285.8" font-family="Helvetica,sans-Serif" font-size="11.00" fill="#000000">ContributionTable_cldf_id</text>
<polygon fill="none" stroke="#000000" points="465,-256.7 465,-278.7 697,-278.7 697,-256.7 465,-256.7"/>
<image xlink:href="../../images/foreignKeys.png" width="11px" height="12px" preserveAspectRatio="xMinYMin meet" x="470" y="-273.7"/>
<text text-anchor="start" x="485" y="-263.8" font-family="Helvetica,sans-Serif" font-size="11.00" fill="#000000">SourceTable_id</text>
<polygon fill="none" stroke="#000000" points="465,-237.7 465,-256.7 697,-256.7 697,-237.7 465,-237.7"/>
<text text-anchor="start" x="468" y="-243.8" font-family="Helvetica,sans-Serif" font-size="11.00" fill="#000000">...</text>
<polygon fill="#ffffff" stroke="transparent" points="465,-218.7 465,-237.7 560,-237.7 560,-218.7 465,-218.7"/>
<polygon fill="none" stroke="#000000" points="465,-218.7 465,-237.7 560,-237.7 560,-218.7 465,-218.7"/>
<text text-anchor="start" x="468" y="-224.8" font-family="Helvetica,sans-Serif" font-size="11.00" fill="#000000">&lt; 2</text>
<polygon fill="#ffffff" stroke="transparent" points="560,-218.7 560,-237.7 647,-237.7 647,-218.7 560,-218.7"/>
<polygon fill="none" stroke="#000000" points="560,-218.7 560,-237.7 647,-237.7 647,-218.7 560,-218.7"/>
<text text-anchor="start" x="599.3807" y="-224.8" font-family="Helvetica,sans-Serif" font-size="11.00" fill="#000000">121 rows</text>
<polygon fill="#ffffff" stroke="transparent" points="647,-218.7 647,-237.7 697,-237.7 697,-218.7 647,-218.7"/>
<polygon fill="none" stroke="#000000" points="647,-218.7 647,-237.7 697,-237.7 697,-218.7 647,-218.7"/>
<text text-anchor="start" x="687.8862" y="-224.8" font-family="Helvetica,sans-Serif" font-size="11.00" fill="#000000"> &#160;</text>
</a>
</g>
</g>
<!-- ContributionTable_SourceTable&#45;&gt;ContributionTable -->
<g id="edge2" class="edge">
<title>ContributionTable_SourceTable:w&#45;&gt;ContributionTable:e</title>
<path fill="none" stroke="#000000" d="M450.446,-289.5689C340.1139,-287.5795 300.1998,-264.2194 192,-307.7 170.1929,-316.4633 175.002,-341.7 151.5,-341.7"/>
<polygon fill="#000000" stroke="#000000" points="457.0003,-289.6279 464.9676,-293.2999 461.0002,-289.6639 465,-289.7 465,-289.7 465,-289.7 461.0002,-289.6639 465.0324,-286.1001 457.0003,-289.6279 457.0003,-289.6279"/>
<ellipse fill="none" stroke="#000000" cx="453.8005" cy="-289.5991" rx="3.2" ry="3.2"/>
</g>
<!-- SourceTable -->
<g id="node7" class="node">
<title>SourceTable</title>
<g id="a_node7"><a xlink:href="../../tables/SourceTable.html" xlink:title="SourceTable" target="_top">
<polygon fill="#ffffff" stroke="transparent" points="245,-38.2 245,-121.2 371,-121.2 371,-38.2 245,-38.2"/>
<polygon fill="#f5f5f5" stroke="transparent" points="245,-97.7 245,-120.7 371,-120.7 371,-97.7 245,-97.7"/>
<polygon fill="none" stroke="#000000" points="245,-97.7 245,-120.7 371,-120.7 371,-97.7 245,-97.7"/>
<text text-anchor="start" x="250" y="-106.8" font-family="Helvetica,sans-Serif" font-weight="bold" font-size="11.00" fill="#000000">SourceTable</text>
<text text-anchor="start" x="336.0437" y="-105.8" font-family="Helvetica,sans-Serif" font-size="11.00" fill="#000000">[table]</text>
<polygon fill="none" stroke="#000000" points="245,-75.7 245,-97.7 371,-97.7 371,-75.7 245,-75.7"/>
<image xlink:href="../../images/primaryKeys.png" width="11px" height="12px" preserveAspectRatio="xMinYMin meet" x="250" y="-92.7"/>
<text text-anchor="start" x="265" y="-82.8" font-family="Helvetica,sans-Serif" font-size="11.00" fill="#000000">id</text>
<polygon fill="none" stroke="#000000" points="245,-56.7 245,-75.7 371,-75.7 371,-56.7 245,-56.7"/>
<text text-anchor="start" x="248" y="-62.8" font-family="Helvetica,sans-Serif" font-size="11.00" fill="#000000">...</text>
<polygon fill="#ffffff" stroke="transparent" points="245,-37.7 245,-56.7 274,-56.7 274,-37.7 245,-37.7"/>
<polygon fill="none" stroke="#000000" points="245,-37.7 245,-56.7 274,-56.7 274,-37.7 245,-37.7"/>
<text text-anchor="start" x="248" y="-43.8" font-family="Helvetica,sans-Serif" font-size="11.00" fill="#000000"> &#160;</text>
<polygon fill="#ffffff" stroke="transparent" points="274,-37.7 274,-56.7 341,-56.7 341,-37.7 274,-37.7"/>
<polygon fill="none" stroke="#000000" points="274,-37.7 274,-56.7 341,-56.7 341,-37.7 274,-37.7"/>
<text text-anchor="start" x="284.2089" y="-43.8" font-family="Helvetica,sans-Serif" font-size="11.00" fill="#000000">4,227 rows</text>
<polygon fill="#ffffff" stroke="transparent" points="341,-37.7 341,-56.7 371,-56.7 371,-37.7 341,-37.7"/>
<polygon fill="none" stroke="#000000" points="341,-37.7 341,-56.7 371,-56.7 371,-37.7 341,-37.7"/>
<text text-anchor="start" x="352.4053" y="-43.8" font-family="Helvetica,sans-Serif" font-size="11.00" fill="#000000">3 &gt;</text>
</a>
</g>
</g>
<!-- ContributionTable_SourceTable&#45;&gt;SourceTable -->
<g id="edge3" class="edge">
<title>ContributionTable_SourceTable:w&#45;&gt;SourceTable:e</title>
<path fill="none" stroke="#000000" d="M450.4807,-265.6849C411.5125,-252.6833 455.4133,-179.665 424,-131.7 407.07,-105.8497 401.9009,-86.7 371,-86.7"/>
<polygon fill="#000000" stroke="#000000" points="457.076,-266.6002 464.5051,-271.2658 461.038,-267.1501 465,-267.7 465,-267.7 465,-267.7 461.038,-267.1501 465.4949,-264.1342 457.076,-266.6002 457.076,-266.6002"/>
<ellipse fill="none" stroke="#000000" cx="453.9063" cy="-266.1603" rx="3.2" ry="3.2"/>
</g>
<!-- LanguageTable -->
<g id="node4" class="node">
<title>LanguageTable</title>
<g id="a_node4"><a xlink:href="../../tables/LanguageTable.html" xlink:title="LanguageTable" target="_top">
<polygon fill="#ffffff" stroke="transparent" points="200,-444.2 200,-549.2 416,-549.2 416,-444.2 200,-444.2"/>
<polygon fill="#f5f5f5" stroke="transparent" points="200,-525.7 200,-548.7 416,-548.7 416,-525.7 200,-525.7"/>
<polygon fill="none" stroke="#000000" points="200,-525.7 200,-548.7 416,-548.7 416,-525.7 200,-525.7"/>
<text text-anchor="start" x="205" y="-534.8" font-family="Helvetica,sans-Serif" font-weight="bold" font-size="11.00" fill="#000000">LanguageTable</text>
<text text-anchor="start" x="381.0437" y="-533.8" font-family="Helvetica,sans-Serif" font-size="11.00" fill="#000000">[table]</text>
<polygon fill="none" stroke="#000000" points="200,-503.7 200,-525.7 416,-525.7 416,-503.7 200,-503.7"/>
<image xlink:href="../../images/primaryKeys.png" width="11px" height="12px" preserveAspectRatio="xMinYMin meet" x="205" y="-520.7"/>
<text text-anchor="start" x="220" y="-510.8" font-family="Helvetica,sans-Serif" font-size="11.00" fill="#000000">cldf_id</text>
<polygon fill="none" stroke="#000000" points="200,-481.7 200,-503.7 416,-503.7 416,-481.7 200,-481.7"/>
<image xlink:href="../../images/foreignKeys.png" width="11px" height="12px" preserveAspectRatio="xMinYMin meet" x="205" y="-498.7"/>
<text text-anchor="start" x="220" y="-488.8" font-family="Helvetica,sans-Serif" font-size="11.00" fill="#000000">cldf_contributionReference</text>
<polygon fill="none" stroke="#000000" points="200,-462.7 200,-481.7 416,-481.7 416,-462.7 200,-462.7"/>
<text text-anchor="start" x="203" y="-468.8" font-family="Helvetica,sans-Serif" font-size="11.00" fill="#000000">...</text>
<polygon fill="#ffffff" stroke="transparent" points="200,-443.7 200,-462.7 278,-462.7 278,-443.7 200,-443.7"/>
<polygon fill="none" stroke="#000000" points="200,-443.7 200,-462.7 278,-462.7 278,-443.7 200,-443.7"/>
<text text-anchor="start" x="203" y="-449.8" font-family="Helvetica,sans-Serif" font-size="11.00" fill="#000000">&lt; 1</text>
<polygon fill="#ffffff" stroke="transparent" points="278,-443.7 278,-462.7 366,-462.7 366,-443.7 278,-443.7"/>
<polygon fill="none" stroke="#000000" points="278,-443.7 278,-462.7 366,-462.7 366,-443.7 278,-443.7"/>
<text text-anchor="start" x="309.2089" y="-449.8" font-family="Helvetica,sans-Serif" font-size="11.00" fill="#000000">6,099 rows</text>
<polygon fill="#ffffff" stroke="transparent" points="366,-443.7 366,-462.7 416,-462.7 416,-443.7 366,-443.7"/>
<polygon fill="none" stroke="#000000" points="366,-443.7 366,-462.7 416,-462.7 416,-443.7 366,-443.7"/>
<text text-anchor="start" x="397.4053" y="-449.8" font-family="Helvetica,sans-Serif" font-size="11.00" fill="#000000">1 &gt;</text>
</a>
</g>
</g>
<!-- LanguageTable&#45;&gt;ContributionTable -->
<g id="edge4" class="edge">
<title>LanguageTable:w&#45;&gt;ContributionTable:e</title>
<path fill="none" stroke="#000000" d="M185.7633,-489.8184C143.5873,-468.9427 216.2057,-341.7 151.5,-341.7"/>
<polygon fill="#000000" stroke="#000000" points="192.159,-491.1129 199.2858,-496.2284 196.0795,-491.9064 200,-492.7 200,-492.7 200,-492.7 196.0795,-491.9064 200.7142,-489.1716 192.159,-491.1129 192.159,-491.1129"/>
<ellipse fill="none" stroke="#000000" cx="189.0226" cy="-490.4781" rx="3.2" ry="3.2"/>
</g>
<!-- MediaTable -->
<g id="node5" class="node">
<title>MediaTable</title>
<g id="a_node5"><a xlink:href="../../tables/MediaTable.html" xlink:title="MediaTable" target="_top">
<polygon fill="#ffffff" stroke="transparent" points="11,-164.2 11,-247.2 148,-247.2 148,-164.2 11,-164.2"/>
<polygon fill="#f5f5f5" stroke="transparent" points="11.5,-223.7 11.5,-246.7 148.5,-246.7 148.5,-223.7 11.5,-223.7"/>
<polygon fill="none" stroke="#000000" points="11.5,-223.7 11.5,-246.7 148.5,-246.7 148.5,-223.7 11.5,-223.7"/>
<text text-anchor="start" x="16.5" y="-232.8" font-family="Helvetica,sans-Serif" font-weight="bold" font-size="11.00" fill="#000000">MediaTable</text>
<text text-anchor="start" x="113.5437" y="-231.8" font-family="Helvetica,sans-Serif" font-size="11.00" fill="#000000">[table]</text>
<polygon fill="none" stroke="#000000" points="11.5,-201.7 11.5,-223.7 148.5,-223.7 148.5,-201.7 11.5,-201.7"/>
<image xlink:href="../../images/primaryKeys.png" width="11px" height="12px" preserveAspectRatio="xMinYMin meet" x="16.5" y="-218.7"/>
<text text-anchor="start" x="31.5" y="-208.8" font-family="Helvetica,sans-Serif" font-size="11.00" fill="#000000">cldf_id</text>
<polygon fill="none" stroke="#000000" points="11.5,-182.7 11.5,-201.7 148.5,-201.7 148.5,-182.7 11.5,-182.7"/>
<text text-anchor="start" x="14.5" y="-188.8" font-family="Helvetica,sans-Serif" font-size="11.00" fill="#000000">...</text>
<polygon fill="#ffffff" stroke="transparent" points="11.5,-163.7 11.5,-182.7 50.5,-182.7 50.5,-163.7 11.5,-163.7"/>
<polygon fill="none" stroke="#000000" points="11.5,-163.7 11.5,-182.7 50.5,-182.7 50.5,-163.7 11.5,-163.7"/>
<text text-anchor="start" x="14.5" y="-169.8" font-family="Helvetica,sans-Serif" font-size="11.00" fill="#000000"> &#160;</text>
<polygon fill="#ffffff" stroke="transparent" points="50.5,-163.7 50.5,-182.7 113.5,-182.7 113.5,-163.7 50.5,-163.7"/>
<polygon fill="none" stroke="#000000" points="50.5,-163.7 50.5,-182.7 113.5,-182.7 113.5,-163.7 50.5,-163.7"/>
<text text-anchor="start" x="65.8807" y="-169.8" font-family="Helvetica,sans-Serif" font-size="11.00" fill="#000000">109 rows</text>
<polygon fill="#ffffff" stroke="transparent" points="113.5,-163.7 113.5,-182.7 148.5,-182.7 148.5,-163.7 113.5,-163.7"/>
<polygon fill="none" stroke="#000000" points="113.5,-163.7 113.5,-182.7 148.5,-182.7 148.5,-163.7 113.5,-163.7"/>
<text text-anchor="start" x="129.9053" y="-169.8" font-family="Helvetica,sans-Serif" font-size="11.00" fill="#000000">1 &gt;</text>
</a>
</g>
</g>
<!-- ParameterTable&#45;&gt;ContributionTable -->
<g id="edge5" class="edge">
<title>ParameterTable:w&#45;&gt;ContributionTable:e</title>
<path fill="none" stroke="#000000" d="M191.6319,-363.6345C177.6074,-356.9588 172.3196,-341.7 151.5,-341.7"/>
<polygon fill="#000000" stroke="#000000" points="198.1761,-365.0307 205.2488,-370.2208 202.088,-365.8653 206,-366.7 206,-366.7 206,-366.7 202.088,-365.8653 206.7512,-363.1792 198.1761,-365.0307 198.1761,-365.0307"/>
<ellipse fill="none" stroke="#000000" cx="195.0465" cy="-364.363" rx="3.2" ry="3.2"/>
</g>
<!-- TreeTable -->
<g id="node8" class="node">
<title>TreeTable</title>
<g id="a_node8"><a xlink:href="../../tables/TreeTable.html" xlink:title="TreeTable" target="_top">
<polygon fill="#ffffff" stroke="transparent" points="206,-142.2 206,-269.2 410,-269.2 410,-142.2 206,-142.2"/>
<polygon fill="#f5f5f5" stroke="transparent" points="206,-245.7 206,-268.7 410,-268.7 410,-245.7 206,-245.7"/>
<polygon fill="none" stroke="#000000" points="206,-245.7 206,-268.7 410,-268.7 410,-245.7 206,-245.7"/>
<text text-anchor="start" x="211" y="-254.8" font-family="Helvetica,sans-Serif" font-weight="bold" font-size="11.00" fill="#000000">TreeTable</text>
<text text-anchor="start" x="375.0437" y="-253.8" font-family="Helvetica,sans-Serif" font-size="11.00" fill="#000000">[table]</text>
<polygon fill="none" stroke="#000000" points="206,-223.7 206,-245.7 410,-245.7 410,-223.7 206,-223.7"/>
<image xlink:href="../../images/primaryKeys.png" width="11px" height="12px" preserveAspectRatio="xMinYMin meet" x="211" y="-240.7"/>
<text text-anchor="start" x="226" y="-230.8" font-family="Helvetica,sans-Serif" font-size="11.00" fill="#000000">cldf_id</text>
<polygon fill="none" stroke="#000000" points="206,-201.7 206,-223.7 410,-223.7 410,-201.7 206,-201.7"/>
<image xlink:href="../../images/foreignKeys.png" width="11px" height="12px" preserveAspectRatio="xMinYMin meet" x="211" y="-218.7"/>
<text text-anchor="start" x="226" y="-208.8" font-family="Helvetica,sans-Serif" font-size="11.00" fill="#000000">cldf_mediaReference</text>
<polygon fill="none" stroke="#000000" points="206,-179.7 206,-201.7 410,-201.7 410,-179.7 206,-179.7"/>
<image xlink:href="../../images/foreignKeys.png" width="11px" height="12px" preserveAspectRatio="xMinYMin meet" x="211" y="-196.7"/>
<text text-anchor="start" x="226" y="-186.8" font-family="Helvetica,sans-Serif" font-size="11.00" fill="#000000">cldf_contributionReference</text>
<polygon fill="none" stroke="#000000" points="206,-160.7 206,-179.7 410,-179.7 410,-160.7 206,-160.7"/>
<text text-anchor="start" x="209" y="-166.8" font-family="Helvetica,sans-Serif" font-size="11.00" fill="#000000">...</text>
<polygon fill="#ffffff" stroke="transparent" points="206,-141.7 206,-160.7 283,-160.7 283,-141.7 206,-141.7"/>
<polygon fill="none" stroke="#000000" points="206,-141.7 206,-160.7 283,-160.7 283,-141.7 206,-141.7"/>
<text text-anchor="start" x="209" y="-147.8" font-family="Helvetica,sans-Serif" font-size="11.00" fill="#000000">&lt; 2</text>
<polygon fill="#ffffff" stroke="transparent" points="283,-141.7 283,-160.7 361,-160.7 361,-141.7 283,-141.7"/>
<polygon fill="none" stroke="#000000" points="283,-141.7 283,-160.7 361,-160.7 361,-141.7 283,-141.7"/>
<text text-anchor="start" x="313.3807" y="-147.8" font-family="Helvetica,sans-Serif" font-size="11.00" fill="#000000">109 rows</text>
<polygon fill="#ffffff" stroke="transparent" points="361,-141.7 361,-160.7 410,-160.7 410,-141.7 361,-141.7"/>
<polygon fill="none" stroke="#000000" points="361,-141.7 361,-160.7 410,-160.7 410,-141.7 361,-141.7"/>
<text text-anchor="start" x="391.4053" y="-147.8" font-family="Helvetica,sans-Serif" font-size="11.00" fill="#000000">1 &gt;</text>
</a>
</g>
</g>
<!-- TreeTable&#45;&gt;ContributionTable -->
<g id="edge6" class="edge">
<title>TreeTable:w&#45;&gt;ContributionTable:e</title>
<path fill="none" stroke="#000000" d="M191.765,-193.4498C147.7537,-213.9153 217.1351,-341.7 151.5,-341.7"/>
<polygon fill="#000000" stroke="#000000" points="198.1452,-192.2174 206.6828,-194.2347 202.0726,-191.4587 206,-190.7 206,-190.7 206,-190.7 202.0726,-191.4587 205.3172,-187.1653 198.1452,-192.2174 198.1452,-192.2174"/>
<ellipse fill="none" stroke="#000000" cx="195.0033" cy="-192.8243" rx="3.2" ry="3.2"/>
</g>
<!-- TreeTable&#45;&gt;MediaTable -->
<g id="edge7" class="edge">
<title>TreeTable:w&#45;&gt;MediaTable:e</title>
<path fill="none" stroke="#000000" d="M191.5794,-212.7C176.7322,-212.7 168.4653,-212.7 148.5,-212.7"/>
<polygon fill="#000000" stroke="#000000" points="198,-212.7001 206,-216.3 202,-212.7 206,-212.7 206,-212.7 206,-212.7 202,-212.7 206,-209.1 198,-212.7001 198,-212.7001"/>
<ellipse fill="none" stroke="#000000" cx="194.8" cy="-212.7001" rx="3.2" ry="3.2"/>
</g>
<!-- TreeTable_SourceTable -->
<g id="node9" class="node">
<title>TreeTable_SourceTable</title>
<g id="a_node9"><a xlink:href="../../tables/TreeTable_SourceTable.html" xlink:title="TreeTable_SourceTable" target="_top">
<polygon fill="#ffffff" stroke="transparent" points="492,-93.2 492,-198.2 670,-198.2 670,-93.2 492,-93.2"/>
<polygon fill="#f5f5f5" stroke="transparent" points="492,-174.7 492,-197.7 670,-197.7 670,-174.7 492,-174.7"/>
<polygon fill="none" stroke="#000000" points="492,-174.7 492,-197.7 670,-197.7 670,-174.7 492,-174.7"/>
<text text-anchor="start" x="497" y="-183.8" font-family="Helvetica,sans-Serif" font-weight="bold" font-size="11.00" fill="#000000">TreeTable_SourceTable</text>
<text text-anchor="start" x="635.0437" y="-182.8" font-family="Helvetica,sans-Serif" font-size="11.00" fill="#000000">[table]</text>
<polygon fill="none" stroke="#000000" points="492,-152.7 492,-174.7 670,-174.7 670,-152.7 492,-152.7"/>
<image xlink:href="../../images/foreignKeys.png" width="11px" height="12px" preserveAspectRatio="xMinYMin meet" x="497" y="-169.7"/>
<text text-anchor="start" x="512" y="-159.8" font-family="Helvetica,sans-Serif" font-size="11.00" fill="#000000">TreeTable_cldf_id</text>
<polygon fill="none" stroke="#000000" points="492,-130.7 492,-152.7 670,-152.7 670,-130.7 492,-130.7"/>
<image xlink:href="../../images/foreignKeys.png" width="11px" height="12px" preserveAspectRatio="xMinYMin meet" x="497" y="-147.7"/>
<text text-anchor="start" x="512" y="-137.8" font-family="Helvetica,sans-Serif" font-size="11.00" fill="#000000">SourceTable_id</text>
<polygon fill="none" stroke="#000000" points="492,-111.7 492,-130.7 670,-130.7 670,-111.7 492,-111.7"/>
<text text-anchor="start" x="495" y="-117.8" font-family="Helvetica,sans-Serif" font-size="11.00" fill="#000000">...</text>
<polygon fill="#ffffff" stroke="transparent" points="492,-92.7 492,-111.7 560,-111.7 560,-92.7 492,-92.7"/>
<polygon fill="none" stroke="#000000" points="492,-92.7 492,-111.7 560,-111.7 560,-92.7 492,-92.7"/>
<text text-anchor="start" x="495" y="-98.8" font-family="Helvetica,sans-Serif" font-size="11.00" fill="#000000">&lt; 2</text>
<polygon fill="#ffffff" stroke="transparent" points="560,-92.7 560,-111.7 634,-111.7 634,-92.7 560,-92.7"/>
<polygon fill="none" stroke="#000000" points="560,-92.7 560,-111.7 634,-111.7 634,-92.7 560,-92.7"/>
<text text-anchor="start" x="586.3807" y="-98.8" font-family="Helvetica,sans-Serif" font-size="11.00" fill="#000000">109 rows</text>
<polygon fill="#ffffff" stroke="transparent" points="634,-92.7 634,-111.7 670,-111.7 670,-92.7 634,-92.7"/>
<polygon fill="none" stroke="#000000" points="634,-92.7 634,-111.7 670,-111.7 670,-92.7 634,-92.7"/>
<text text-anchor="start" x="660.8862" y="-98.8" font-family="Helvetica,sans-Serif" font-size="11.00" fill="#000000"> &#160;</text>
</a>
</g>
</g>
<!-- TreeTable_SourceTable&#45;&gt;SourceTable -->
<g id="edge8" class="edge">
<title>TreeTable_SourceTable:w&#45;&gt;SourceTable:e</title>
<path fill="none" stroke="#000000" d="M477.3579,-140.4479C431.9606,-132.2611 424.7654,-86.7 371,-86.7"/>
<polygon fill="#000000" stroke="#000000" points="484.0291,-141.0183 491.6933,-145.2869 488.0145,-141.3592 492,-141.7 492,-141.7 492,-141.7 488.0145,-141.3592 492.3067,-138.1131 484.0291,-141.0183 484.0291,-141.0183"/>
<ellipse fill="none" stroke="#000000" cx="480.8407" cy="-140.7457" rx="3.2" ry="3.2"/>
</g>
<!-- TreeTable_SourceTable&#45;&gt;TreeTable -->
<g id="edge9" class="edge">
<title>TreeTable_SourceTable:w&#45;&gt;TreeTable:e</title>
<path fill="none" stroke="#000000" d="M477.4305,-166.3966C446.3111,-179.3656 452.5581,-234.7 410,-234.7"/>
<polygon fill="#000000" stroke="#000000" points="484.1336,-165.156 492.6552,-167.2399 488.0668,-164.428 492,-163.7 492,-163.7 492,-163.7 488.0668,-164.428 491.3448,-160.1601 484.1336,-165.156 484.1336,-165.156"/>
<ellipse fill="none" stroke="#000000" cx="480.987" cy="-165.7384" rx="3.2" ry="3.2"/>
</g>
<!-- ValueTable -->
<g id="node10" class="node">
<title>ValueTable</title>
<g id="a_node10"><a xlink:href="../../tables/ValueTable.html" xlink:title="ValueTable" target="_top">
<polygon fill="#ffffff" stroke="transparent" points="746,-385.2 746,-534.2 937,-534.2 937,-385.2 746,-385.2"/>
<polygon fill="#f5f5f5" stroke="transparent" points="746.5,-510.7 746.5,-533.7 937.5,-533.7 937.5,-510.7 746.5,-510.7"/>
<polygon fill="none" stroke="#000000" points="746.5,-510.7 746.5,-533.7 937.5,-533.7 937.5,-510.7 746.5,-510.7"/>
<text text-anchor="start" x="751.5" y="-519.8" font-family="Helvetica,sans-Serif" font-weight="bold" font-size="11.00" fill="#000000">ValueTable</text>
<text text-anchor="start" x="902.5437" y="-518.8" font-family="Helvetica,sans-Serif" font-size="11.00" fill="#000000">[table]</text>
<polygon fill="none" stroke="#000000" points="746.5,-488.7 746.5,-510.7 937.5,-510.7 937.5,-488.7 746.5,-488.7"/>
<image xlink:href="../../images/primaryKeys.png" width="11px" height="12px" preserveAspectRatio="xMinYMin meet" x="751.5" y="-505.7"/>
<text text-anchor="start" x="766.5" y="-495.8" font-family="Helvetica,sans-Serif" font-size="11.00" fill="#000000">cldf_id</text>
<polygon fill="none" stroke="#000000" points="746.5,-466.7 746.5,-488.7 937.5,-488.7 937.5,-466.7 746.5,-466.7"/>
<image xlink:href="../../images/foreignKeys.png" width="11px" height="12px" preserveAspectRatio="xMinYMin meet" x="751.5" y="-483.7"/>
<text text-anchor="start" x="766.5" y="-473.8" font-family="Helvetica,sans-Serif" font-size="11.00" fill="#000000">cldf_languageReference</text>
<polygon fill="none" stroke="#000000" points="746.5,-444.7 746.5,-466.7 937.5,-466.7 937.5,-444.7 746.5,-444.7"/>
<image xlink:href="../../images/foreignKeys.png" width="11px" height="12px" preserveAspectRatio="xMinYMin meet" x="751.5" y="-461.7"/>
<text text-anchor="start" x="766.5" y="-451.8" font-family="Helvetica,sans-Serif" font-size="11.00" fill="#000000">cldf_parameterReference</text>
<polygon fill="none" stroke="#000000" points="746.5,-422.7 746.5,-444.7 937.5,-444.7 937.5,-422.7 746.5,-422.7"/>
<image xlink:href="../../images/foreignKeys.png" width="11px" height="12px" preserveAspectRatio="xMinYMin meet" x="751.5" y="-439.7"/>
<text text-anchor="start" x="766.5" y="-429.8" font-family="Helvetica,sans-Serif" font-size="11.00" fill="#000000">cldf_codeReference</text>
<polygon fill="none" stroke="#000000" points="746.5,-403.7 746.5,-422.7 937.5,-422.7 937.5,-403.7 746.5,-403.7"/>
<text text-anchor="start" x="749.5" y="-409.8" font-family="Helvetica,sans-Serif" font-size="11.00" fill="#000000">...</text>
<polygon fill="#ffffff" stroke="transparent" points="746.5,-384.7 746.5,-403.7 805.5,-403.7 805.5,-384.7 746.5,-384.7"/>
<polygon fill="none" stroke="#000000" points="746.5,-384.7 746.5,-403.7 805.5,-403.7 805.5,-384.7 746.5,-384.7"/>
<text text-anchor="start" x="749.5" y="-390.8" font-family="Helvetica,sans-Serif" font-size="11.00" fill="#000000">&lt; 3</text>
<polygon fill="#ffffff" stroke="transparent" points="805.5,-384.7 805.5,-403.7 896.5,-403.7 896.5,-384.7 805.5,-384.7"/>
<polygon fill="none" stroke="#000000" points="805.5,-384.7 805.5,-403.7 896.5,-403.7 896.5,-384.7 805.5,-384.7"/>
<text text-anchor="start" x="827.4791" y="-390.8" font-family="Helvetica,sans-Serif" font-size="11.00" fill="#000000">587,172 rows</text>
<polygon fill="#ffffff" stroke="transparent" points="896.5,-384.7 896.5,-403.7 937.5,-403.7 937.5,-384.7 896.5,-384.7"/>
<polygon fill="none" stroke="#000000" points="896.5,-384.7 896.5,-403.7 937.5,-403.7 937.5,-384.7 896.5,-384.7"/>
<text text-anchor="start" x="918.9053" y="-390.8" font-family="Helvetica,sans-Serif" font-size="11.00" fill="#000000">1 &gt;</text>
</a>
</g>
</g>
<!-- ValueTable&#45;&gt;CodeTable -->
<g id="edge10" class="edge">
<title>ValueTable:w&#45;&gt;CodeTable:e</title>
<path fill="none" stroke="#000000" d="M732.1052,-432.2876C711.8634,-428.0442 703.4239,-415.7 677,-415.7"/>
<polygon fill="#000000" stroke="#000000" points="738.5382,-432.9187 746.1484,-437.2828 742.5191,-433.3094 746.5,-433.7 746.5,-433.7 746.5,-433.7 742.5191,-433.3094 746.8516,-430.1172 738.5382,-432.9187 738.5382,-432.9187"/>
<ellipse fill="none" stroke="#000000" cx="735.3535" cy="-432.6062" rx="3.2" ry="3.2"/>
</g>
<!-- ValueTable&#45;&gt;LanguageTable -->
<g id="edge11" class="edge">
<title>ValueTable:w&#45;&gt;LanguageTable:e</title>
<path fill="none" stroke="#000000" d="M732.0278,-478.8668C723.6009,-480.3678 717.5974,-482.9855 705,-484.7 577.045,-502.1147 545.1346,-514.7 416,-514.7"/>
<polygon fill="#000000" stroke="#000000" points="738.5259,-478.3429 746.7893,-481.2884 742.5129,-478.0215 746.5,-477.7 746.5,-477.7 746.5,-477.7 742.5129,-478.0215 746.2107,-474.1116 738.5259,-478.3429 738.5259,-478.3429"/>
<ellipse fill="none" stroke="#000000" cx="735.3362" cy="-478.6001" rx="3.2" ry="3.2"/>
</g>
<!-- ValueTable&#45;&gt;ParameterTable -->
<g id="edge12" class="edge">
<title>ValueTable:w&#45;&gt;ParameterTable:e</title>
<path fill="none" stroke="#000000" d="M732.0864,-456.6775C723.6642,-457.9054 717.6044,-459.9434 705,-460.7 594.9758,-467.3041 553.9273,-513.1788 457,-460.7 423.3949,-442.5054 448.2145,-388.7 410,-388.7"/>
<polygon fill="#000000" stroke="#000000" points="738.5183,-456.2413 746.7436,-459.2917 742.5092,-455.9707 746.5,-455.7 746.5,-455.7 746.5,-455.7 742.5092,-455.9707 746.2564,-452.1083 738.5183,-456.2413 738.5183,-456.2413"/>
<ellipse fill="none" stroke="#000000" cx="735.3257" cy="-456.4579" rx="3.2" ry="3.2"/>
</g>
<!-- ValueTable_SourceTable -->
<g id="node11" class="node">
<title>ValueTable_SourceTable</title>
<g id="a_node11"><a xlink:href="../../tables/ValueTable_SourceTable.html" xlink:title="ValueTable_SourceTable" target="_top">
<polygon fill="#ffffff" stroke="transparent" points="986,-215.2 986,-320.2 1172,-320.2 1172,-215.2 986,-215.2"/>
<polygon fill="#f5f5f5" stroke="transparent" points="986,-296.7 986,-319.7 1172,-319.7 1172,-296.7 986,-296.7"/>
<polygon fill="none" stroke="#000000" points="986,-296.7 986,-319.7 1172,-319.7 1172,-296.7 986,-296.7"/>
<text text-anchor="start" x="991" y="-305.8" font-family="Helvetica,sans-Serif" font-weight="bold" font-size="11.00" fill="#000000">ValueTable_SourceTable</text>
<text text-anchor="start" x="1137.0437" y="-304.8" font-family="Helvetica,sans-Serif" font-size="11.00" fill="#000000">[table]</text>
<polygon fill="none" stroke="#000000" points="986,-274.7 986,-296.7 1172,-296.7 1172,-274.7 986,-274.7"/>
<image xlink:href="../../images/foreignKeys.png" width="11px" height="12px" preserveAspectRatio="xMinYMin meet" x="991" y="-291.7"/>
<text text-anchor="start" x="1006" y="-281.8" font-family="Helvetica,sans-Serif" font-size="11.00" fill="#000000">ValueTable_cldf_id</text>
<polygon fill="none" stroke="#000000" points="986,-252.7 986,-274.7 1172,-274.7 1172,-252.7 986,-252.7"/>
<image xlink:href="../../images/foreignKeys.png" width="11px" height="12px" preserveAspectRatio="xMinYMin meet" x="991" y="-269.7"/>
<text text-anchor="start" x="1006" y="-259.8" font-family="Helvetica,sans-Serif" font-size="11.00" fill="#000000">SourceTable_id</text>
<polygon fill="none" stroke="#000000" points="986,-233.7 986,-252.7 1172,-252.7 1172,-233.7 986,-233.7"/>
<text text-anchor="start" x="989" y="-239.8" font-family="Helvetica,sans-Serif" font-size="11.00" fill="#000000">...</text>
<polygon fill="#ffffff" stroke="transparent" points="986,-214.7 986,-233.7 1047,-233.7 1047,-214.7 986,-214.7"/>
<polygon fill="none" stroke="#000000" points="986,-214.7 986,-233.7 1047,-233.7 1047,-214.7 986,-214.7"/>
<text text-anchor="start" x="989" y="-220.8" font-family="Helvetica,sans-Serif" font-size="11.00" fill="#000000">&lt; 2</text>
<polygon fill="#ffffff" stroke="transparent" points="1047,-214.7 1047,-233.7 1139,-233.7 1139,-214.7 1047,-214.7"/>
<polygon fill="none" stroke="#000000" points="1047,-214.7 1047,-233.7 1139,-233.7 1139,-214.7 1047,-214.7"/>
<text text-anchor="start" x="1069.9791" y="-220.8" font-family="Helvetica,sans-Serif" font-size="11.00" fill="#000000">688,709 rows</text>
<polygon fill="#ffffff" stroke="transparent" points="1139,-214.7 1139,-233.7 1172,-233.7 1172,-214.7 1139,-214.7"/>
<polygon fill="none" stroke="#000000" points="1139,-214.7 1139,-233.7 1172,-233.7 1172,-214.7 1139,-214.7"/>
<text text-anchor="start" x="1162.8862" y="-220.8" font-family="Helvetica,sans-Serif" font-size="11.00" fill="#000000"> &#160;</text>
</a>
</g>
</g>
<!-- ValueTable_SourceTable&#45;&gt;SourceTable -->
<g id="edge13" class="edge">
<title>ValueTable_SourceTable:w&#45;&gt;SourceTable:e</title>
<path fill="none" stroke="#000000" d="M971.3108,-263.222C837.9553,-254.3065 842.6445,-123.1936 705,-82.7 562.5801,-40.8015 519.4551,-86.7 371,-86.7"/>
<polygon fill="#000000" stroke="#000000" points="978.0042,-263.4398 985.8829,-267.2981 982.0021,-263.5699 986,-263.7 986,-263.7 986,-263.7 982.0021,-263.5699 986.1171,-260.1019 978.0042,-263.4398 978.0042,-263.4398"/>
<ellipse fill="none" stroke="#000000" cx="974.8059" cy="-263.3357" rx="3.2" ry="3.2"/>
</g>
<!-- ValueTable_SourceTable&#45;&gt;ValueTable -->
<g id="edge14" class="edge">
<title>ValueTable_SourceTable:w&#45;&gt;ValueTable:e</title>
<path fill="none" stroke="#000000" d="M971.689,-287.6819C904.2948,-309.2556 1029.4994,-499.7 937.5,-499.7"/>
<polygon fill="#000000" stroke="#000000" points="978.0756,-286.7975 986.4939,-289.266 982.0378,-286.2487 986,-285.7 986,-285.7 986,-285.7 982.0378,-286.2487 985.5061,-282.134 978.0756,-286.7975 978.0756,-286.7975"/>
<ellipse fill="none" stroke="#000000" cx="974.9059" cy="-287.2364" rx="3.2" ry="3.2"/>
</g>
</g>
</svg>

